<svg width="389" height="142" viewBox="0 0 389 142" fill="none" xmlns="http://www.w3.org/2000/svg">
<rect y="1" width="67.5" height="135" fill="#FF485A"/>
<rect x="67.5" y="1" width="67.5" height="135" fill="#FFC30B"/>
<path d="M37.7702 51.3105C29.7299 48.9993 23.8705 46.1673 20.1921 42.8145C16.5463 39.429 14.7234 35.2624 14.7234 30.3145C14.7234 24.7155 16.9532 20.0931 21.4128 16.4473C25.905 12.7689 31.7318 10.9297 38.8933 10.9297C43.7761 10.9297 48.1218 11.8737 51.9304 13.7617C55.7715 15.6497 58.7338 18.2539 60.8171 21.5742C62.933 24.8945 63.9909 28.5241 63.9909 32.4629H54.5671C54.5671 28.166 53.1999 24.7969 50.4656 22.3555C47.7312 19.8815 43.8738 18.6445 38.8933 18.6445C34.2709 18.6445 30.6576 19.6699 28.0534 21.7207C25.4818 23.7389 24.196 26.5547 24.196 30.168C24.196 33.0651 25.4167 35.5228 27.8581 37.541C30.3321 39.5267 34.515 41.3496 40.407 43.0098C46.3314 44.6699 50.9538 46.5091 54.2741 48.5273C57.627 50.513 60.101 52.8405 61.696 55.5098C63.3236 58.179 64.1374 61.3203 64.1374 64.9336C64.1374 70.6953 61.8913 75.3177 57.3991 78.8008C52.907 82.2513 46.9011 83.9766 39.3816 83.9766C34.4988 83.9766 29.9415 83.0488 25.7097 81.1934C21.4779 79.3053 18.2064 76.7337 15.8952 73.4785C13.6166 70.2233 12.4773 66.5286 12.4773 62.3945H21.9011C21.9011 66.6914 23.4799 70.0931 26.6374 72.5996C29.8275 75.0736 34.0756 76.3105 39.3816 76.3105C44.3295 76.3105 48.1218 75.3014 50.7585 73.2832C53.3952 71.265 54.7136 68.5143 54.7136 65.0312C54.7136 61.5482 53.4929 58.8626 51.0515 56.9746C48.6101 55.054 44.183 53.166 37.7702 51.3105Z" fill="white"/>
<path d="M120.309 58.8418H97.4569V122.221H88.1308V58.8418H65.328V51.127H120.309V58.8418Z" fill="white"/>
<path d="M144.301 86.7871V83.8965H180.578V86.7871H164.174V136H160.777V86.7871H144.301ZM190.58 83.8965H194.699L206.117 103.119C206.55 103.842 207.321 105.167 208.429 107.094C209.537 109.021 210.356 110.442 210.886 111.357H211.031C212.283 109.238 213.897 106.492 215.873 103.119L227.218 83.8965H231.338L212.693 114.537V136H209.369V114.537L190.58 83.8965ZM242.568 133.398L273.57 86.7871H244.88V83.8965H277.689V86.498L246.542 133.109H278.411V136H242.568V133.398ZM298.241 136V83.8965H329.749V86.7871H301.565V107.527H327.075V110.346H301.565V133.109H330.616V136H298.241ZM352.686 109.551H368.729C372.631 109.551 375.666 108.515 377.834 106.443C380.002 104.324 381.086 101.529 381.086 98.0605C381.086 94.7845 379.978 92.0866 377.762 89.9668C375.594 87.847 372.366 86.7871 368.079 86.7871H352.686V109.551ZM349.362 136V83.8965H369.018C373.98 83.8965 377.786 85.2454 380.436 87.9434C383.134 90.5931 384.483 93.9173 384.483 97.916C384.483 101.867 383.423 104.95 381.303 107.166C379.232 109.382 376.967 110.755 374.51 111.285C376.582 112.201 378.172 113.501 379.28 115.188C380.436 116.874 381.327 119.066 381.954 121.764C382.05 122.197 382.218 122.968 382.459 124.076C382.748 125.184 382.941 125.907 383.038 126.244C383.134 126.533 383.278 127.111 383.471 127.979C383.712 128.798 383.881 129.376 383.977 129.713C384.121 130.002 384.29 130.484 384.483 131.158C384.724 131.833 384.941 132.387 385.133 132.82C385.326 133.206 385.567 133.688 385.856 134.266C386.145 134.844 386.458 135.422 386.795 136H382.965C382.243 134.651 381.592 133.182 381.014 131.592C380.484 130.002 380.075 128.701 379.786 127.689C379.545 126.678 379.087 124.775 378.413 121.98C378.075 120.728 377.69 119.62 377.256 118.656C376.871 117.645 376.293 116.633 375.522 115.621C374.799 114.609 373.812 113.839 372.559 113.309C371.355 112.73 369.933 112.441 368.295 112.441H352.686V136H349.362Z" fill="#FF485A"/>
<path d="M144.373 57.1465L154.568 53.7188C156.209 56.6484 158.582 59.0508 161.688 60.9258C164.793 62.7422 168.221 63.6504 171.971 63.6504C175.838 63.6504 178.943 62.7129 181.287 60.8379C183.631 58.9629 184.803 56.5312 184.803 53.543C184.803 50.3789 183.543 47.918 181.023 46.1602C178.562 44.4023 174.93 42.7031 170.125 41.0625C163.27 38.7773 158.641 36.9609 156.238 35.6133C149.969 32.0391 146.834 26.8535 146.834 20.0566C146.834 14.3145 149.09 9.68555 153.602 6.16992C158.113 2.6543 164.002 0.896484 171.268 0.896484C177.244 0.896484 182.342 2.30273 186.561 5.11523C190.838 7.86914 193.943 11.4141 195.877 15.75L186.121 19.002C182.371 13.5527 177.391 10.8281 171.18 10.8281C167.371 10.8281 164.354 11.6777 162.127 13.377C159.9 15.0762 158.787 17.3027 158.787 20.0566C158.787 20.877 158.875 21.668 159.051 22.4297C159.227 23.1328 159.578 23.8066 160.105 24.4512C160.633 25.0957 161.102 25.6523 161.512 26.1211C161.922 26.5898 162.596 27.0879 163.533 27.6152C164.471 28.1426 165.203 28.5527 165.73 28.8457C166.316 29.1387 167.254 29.5195 168.543 29.9883C169.832 30.457 170.74 30.7793 171.268 30.9551C171.854 31.1309 172.908 31.4824 174.432 32.0098C175.955 32.4785 176.98 32.8008 177.508 32.9766C180.203 33.8555 182.576 34.793 184.627 35.7891C186.678 36.7852 188.67 38.0742 190.604 39.6562C192.596 41.1797 194.119 43.084 195.174 45.3691C196.229 47.6543 196.756 50.2324 196.756 53.1035C196.756 59.6074 194.412 64.6465 189.725 68.2207C185.096 71.7949 179.09 73.582 171.707 73.582C165.32 73.582 159.725 72.1172 154.92 69.1875C150.115 66.1992 146.6 62.1855 144.373 57.1465ZM220.486 45.457H241.229L235.34 27.4395C234.93 26.1504 234.461 24.7148 233.934 23.1328C233.465 21.5508 232.938 19.8223 232.352 17.9473C231.824 16.0137 231.414 14.5781 231.121 13.6406H230.594C230.418 14.2266 229.012 18.8262 226.375 27.4395L220.486 45.457ZM199.393 72L224.529 2.47852H237.273L262.322 72H250.018L244.305 54.7734H217.41L211.697 72H199.393ZM269.793 72V2.47852H281.922L302.928 40.7109L310.662 54.7734H311.102C310.223 48.6211 309.783 41.9414 309.783 34.7344V2.47852H321.385V72H309.256L288.25 34.4707L280.516 19.9688H280.076C280.955 26.8242 281.395 33.5039 281.395 40.0078V72H269.793ZM336.941 72V2.47852H382.557V12.4102H348.543V31.2188H379.217V40.9746H348.543V62.1562H383.436V72H336.941Z" fill="#FFC30B"/>
</svg>
